<svg width="36" height="47" fill="none" xmlns="http://www.w3.org/2000/svg"><path d="M18 47C8.059 47 0 36.479 0 23.5S8.059 0 18 0s18 10.521 18 23.5S27.941 47 18 47z" fill="#111"/><path d="M8.308 5.222l.497 1.404h1.61l-1.303.867.498 1.403-1.302-.867-1.302.867.497-1.403L6.2 6.626h1.61l.497-1.404z" fill="#fff" fill-opacity=".85"/><path d="M14.2 24.359c0 6.436-6.327 12.197-2.382 12.197s15.874-5.76 15.874-12.197c0-6.437-1.61-9.273-5.556-9.273-3.945 0-7.937 2.836-7.937 9.273z" fill="#E8E8E8"/><path d="M8.438 26.31c0 6.244-5.254 11.986-1.617 11.986 3.638 0 14.79-5.742 14.79-11.987s1.99-11.223-1.647-11.223c-3.638 0-11.526 4.978-11.526 11.223z" fill="#fff" fill-opacity=".95"/><path d="M22.154 16.827c0 3.095-.554 5.064-.554 8.159 0 3.094-.222 3.6-2.548 6.695-1.994 2.654-4.652 3.714-4.652 3.714" stroke="#686868" stroke-width=".3"/><path d="M16.283 36.749l3.655.967m-3.655-2.901v1.934-1.934zm0 1.934l-2.437.967 2.437-.967zM17.502 36.749l4.652.967m-4.652-2.901v1.934-1.934zm0 1.934l-3.102.967 3.101-.967z" stroke="#DDD" stroke-width=".5"/><path d="M13.846 11.943c0 2.697 4.137 4.884 8.308 4.884s8.308-2.187 8.308-4.885c0-1.395-.56-3.148-1.345-4.337-.34-.518.148-2.29-.166-2.379-.314-.089-2.237 1.386-2.746 1.759l-4.051.683-4.532-.683c-.66-.373-2.706-1.848-3.02-1.759-.315.089.244 1.86 0 2.379-.562 1.19-.756 2.942-.756 4.338z" fill="#E8E8E8"/><path d="M22.154 16.247l.83-2.321h-1.66l.83 2.32z" fill="#fff"/><path d="M19.108 15.086c-1.683 0-3.046-1.428-3.046-3.19 0-1.764 1.363-3.192 3.046-3.192 1.682 0 3.046 1.428 3.046 3.191s-1.364 3.191-3.046 3.191z" fill="#fff"/><path d="M19.108 14.506c-1.377 0-2.493-1.169-2.493-2.61 0-1.443 1.116-2.612 2.493-2.612 1.376 0 2.492 1.169 2.492 2.611 0 1.442-1.116 2.611-2.492 2.611z" fill="#111"/><path d="M20.492 12.185c0 .962-.496 1.74-1.107 1.74-.612 0-1.108-.778-1.108-1.74 0-.961.496-1.74 1.108-1.74.611 0 1.107.779 1.107 1.74zM25.2 15.086c-1.682 0-3.046-1.428-3.046-3.19 0-1.764 1.364-3.192 3.046-3.192 1.682 0 3.046 1.428 3.046 3.191s-1.364 3.191-3.046 3.191z" fill="#fff"/><path d="M25.2 14.506c-1.377 0-2.492-1.169-2.492-2.61 0-1.443 1.116-2.612 2.492-2.612 1.377 0 2.492 1.169 2.492 2.611 0 1.442-1.116 2.611-2.492 2.611z" fill="#111"/><path d="M26.585 12.185c0 .962-.496 1.74-1.108 1.74-.612 0-1.108-.778-1.108-1.74 0-.961.496-1.74 1.108-1.74.612 0 1.108.779 1.108 1.74z" fill="#fff"/></svg>